<svg xmlns="http://www.w3.org/2000/svg" xmlns:xlink="http://www.w3.org/1999/xlink" version="1.1" x="0px" y="0px" viewBox="0 0 50 62.5" enable-background="new 0 0 50 50" xml:space="preserve"><path d="M45.637,34.425v-18.85c0-2.284-1.858-4.143-4.143-4.143H8.506c-2.284,0-4.143,1.858-4.143,4.143v18.85  c0,2.284,1.858,4.143,4.143,4.143h32.988C43.778,38.567,45.637,36.709,45.637,34.425z M43.637,34.425  c0,1.182-0.961,2.143-2.143,2.143H8.506c-1.182,0-2.143-0.961-2.143-2.143v-18.85c0-1.182,0.961-2.143,2.143-2.143h32.988  c1.182,0,2.143,0.961,2.143,2.143V34.425z"/><path d="M19.446,22.38c0.677-0.712,1.099-1.668,1.099-2.726c0-2.188-1.779-3.967-3.967-3.967c-2.188,0-3.968,1.779-3.968,3.967  c0,1.058,0.422,2.014,1.099,2.726c-1.773,1.004-2.975,2.905-2.975,5.084v5.848c0,0.553,0.448,1,1,1h9.687c0.552,0,1-0.447,1-1  v-5.848C22.421,25.286,21.22,23.385,19.446,22.38z M14.61,19.654c0-1.084,0.883-1.967,1.968-1.967c1.084,0,1.967,0.882,1.967,1.967  c0,1.085-0.882,1.968-1.967,1.968C15.493,21.622,14.61,20.739,14.61,19.654z M16.578,23.622c2.119,0,3.843,1.724,3.843,3.843v4.848  h-1.316v-4.346c0-0.553-0.448-1-1-1s-1,0.447-1,1v4.346h-1.054v-4.346c0-0.553-0.448-1-1-1s-1,0.447-1,1v4.346h-1.316v-4.848  C12.734,25.346,14.458,23.622,16.578,23.622z"/><path d="M38.266,16.266h-9.949c-0.553,0-1,0.448-1,1s0.447,1,1,1h9.949c0.553,0,1-0.448,1-1S38.818,16.266,38.266,16.266z"/><path d="M38.266,21.422h-6.634c-0.553,0-1,0.448-1,1s0.447,1,1,1h6.634c0.553,0,1-0.448,1-1S38.818,21.422,38.266,21.422z"/><path d="M38.266,26.577h-8.553c-0.553,0-1,0.447-1,1s0.447,1,1,1h8.553c0.553,0,1-0.447,1-1S38.818,26.577,38.266,26.577z"/><path d="M38.266,31.733h-9.949c-0.553,0-1,0.447-1,1s0.447,1,1,1h9.949c0.553,0,1-0.447,1-1S38.818,31.733,38.266,31.733z"/><path d="M1,15.92c0.552,0,1-0.448,1-1V9.637h5.283c0.552,0,1-0.448,1-1s-0.448-1-1-1H1c-0.552,0-1,0.448-1,1v6.283  C0,15.472,0.448,15.92,1,15.92z"/><path d="M49,7.637h-6.283c-0.553,0-1,0.448-1,1s0.447,1,1,1H48v5.283c0,0.552,0.447,1,1,1s1-0.448,1-1V8.637  C50,8.084,49.553,7.637,49,7.637z"/><path d="M7.283,40.363H2V35.08c0-0.553-0.448-1-1-1s-1,0.447-1,1v6.283c0,0.553,0.448,1,1,1h6.283c0.552,0,1-0.447,1-1  S7.835,40.363,7.283,40.363z"/><path d="M49,34.08c-0.553,0-1,0.447-1,1v5.283h-5.283c-0.553,0-1,0.447-1,1s0.447,1,1,1H49c0.553,0,1-0.447,1-1V35.08  C50,34.527,49.553,34.08,49,34.08z"/><text x="0" y="65" fill="#000000" font-size="5px" font-weight="bold" font-family="'Helvetica Neue', Helvetica, Arial-Unicode, Arial, Sans-serif">Created by Alex Burte</text><text x="0" y="70" fill="#000000" font-size="5px" font-weight="bold" font-family="'Helvetica Neue', Helvetica, Arial-Unicode, Arial, Sans-serif">from the Noun Project</text></svg>